<svg width="24" height="24" viewBox="0 0 24 24" fill="none" xmlns="http://www.w3.org/2000/svg">
<g clip-path="url(#clip0_0_2424)">
<path d="M4.5152 19.3013L1.35076 17.5578L1.96692 16.9417L4.64363 17.3067L4.88937 17.3402L5.06474 17.1648L9.69193 12.5376L10.1747 12.0548L9.5687 11.7403L1.42955 7.51614L2.43479 6.51091L13.0148 8.88597L13.2832 8.94624L13.4778 8.75167L18.105 4.12448C18.6125 3.61701 19.4158 3.61843 19.9052 4.10788C20.3947 4.59733 20.3961 5.40063 19.8886 5.90809L15.2614 10.5353L15.0669 10.7299L15.1271 10.9984L17.5022 21.5784L16.497 22.5836L12.2729 14.4444L11.9584 13.8384L11.4755 14.3212L6.84832 18.9484L6.67295 19.1238L6.70646 19.3695L7.07148 22.0462L6.45532 22.6624L4.71185 19.498L4.64199 19.3712L4.5152 19.3013Z" fill="#3E4C5966" stroke="#3E4C5966"/>
</g>
<defs>
<clipPath id="clip0_0_2424">
<rect width="24" height="24" fill="#3E4C5966"/>
</clipPath>
</defs>
</svg>
