<svg width="24" height="24" viewBox="0 0 24 24" fill="none" xmlns="http://www.w3.org/2000/svg">
<g clip-path="url(#clip0_0_2750)">
<path d="M24 7.64027V6.37461C24 4.92482 22.8247 3.74953 21.3749 3.74953H2.62435C1.17455 3.74953 -0.000732422 4.92482 -0.000732422 6.37461V7.64027C-0.000732422 7.7697 0.104224 7.87466 0.23365 7.87466H23.7656C23.895 7.87466 24 7.7697 24 7.64027Z" fill="#3E4C59" fill-opacity="0.4"/>
<path d="M-0.000732422 9.60928V17.6251C-0.000732422 19.0749 1.17455 20.2502 2.62435 20.2502H21.3749C22.8247 20.2502 24 19.0749 24 17.6251V9.60928C24 9.47986 23.895 9.3749 23.7656 9.3749H0.23365C0.104224 9.3749 -0.000732422 9.47986 -0.000732422 9.60928ZM5.99944 15.7501C5.99944 16.1643 5.66362 16.5001 5.24942 16.5001H4.4994C4.0852 16.5001 3.74938 16.1643 3.74938 15.7501V15.0001C3.74938 14.5859 4.0852 14.25 4.4994 14.25H5.24942C5.66362 14.25 5.99944 14.5859 5.99944 15.0001V15.7501Z" fill="#3E4C59" fill-opacity="0.4"/>
</g>
<defs>
<clipPath id="clip0_0_2750">
<rect width="24" height="24" fill="white"/>
</clipPath>
</defs>
</svg>
