<svg width="24" height="24" viewBox="0 0 24 24" fill="none" xmlns="http://www.w3.org/2000/svg">
<path d="M12 0C5.38293 0 0 5.38293 0 12C0 18.6171 5.38293 24 12 24C18.6171 24 24 18.6171 24 12C24 5.38293 18.6171 0 12 0Z" fill="#EE950F"/>
<path d="M18.0815 9.45654L11.5815 15.9564C11.3865 16.1514 11.1305 16.2496 10.8745 16.2496C10.6185 16.2496 10.3625 16.1514 10.1675 15.9564L6.9176 12.7065C6.52649 12.3156 6.52649 11.6835 6.9176 11.2925C7.30853 10.9014 7.94043 10.9014 8.33154 11.2925L10.8745 13.8355L16.6676 8.0426C17.0585 7.65149 17.6904 7.65149 18.0815 8.0426C18.4725 8.43353 18.4725 9.06543 18.0815 9.45654Z" fill="#FAFAFA"/>
</svg>
