<svg width="24" height="24" viewBox="0 0 24 24" fill="none" xmlns="http://www.w3.org/2000/svg">
<path d="M0 4.70828V19.2899H24V4.70828H0ZM12 17.3899C9.02236 17.3899 6.61037 14.9755 6.61037 11.9987C6.61037 9.02184 9.02316 6.60824 12 6.60824C14.9768 6.60824 17.3888 9.02184 17.3888 11.9987C17.3888 14.9755 14.9784 17.3899 12 17.3899Z" fill="#3E4C59" fill-opacity="0.4"/>
<path d="M13.7036 11.9077C13.4444 11.7292 12.9524 11.5388 12.226 11.3357V9.05242C12.6571 9.06837 12.9715 9.23329 13.1692 9.54997C13.2756 9.72198 13.3396 9.92671 13.3603 10.1644H14.1811C14.1644 9.63403 13.9916 9.20768 13.6588 8.88523C13.326 8.56198 12.8468 8.37964 12.226 8.33486V7.7204H11.7803V8.34357C11.1523 8.35001 10.6635 8.54361 10.3147 8.92599C9.96587 9.30756 9.79238 9.73552 9.79238 10.21C9.79238 10.742 9.95394 11.158 10.2772 11.4572C10.6004 11.7572 11.102 11.9716 11.7804 12.0995V14.6555C11.2516 14.6115 10.89 14.4131 10.6948 14.0603C10.5837 13.8635 10.5156 13.5507 10.4916 13.1228H9.66193C9.66193 13.6604 9.74988 14.0859 9.92833 14.4028C10.254 14.986 10.8715 15.3091 11.7803 15.3684V16.2787H12.226V15.3684C12.7916 15.306 13.2244 15.1788 13.5243 14.9852C14.066 14.6348 14.3355 14.0436 14.3355 13.2123C14.3356 12.6357 14.1252 12.2013 13.7036 11.9077ZM11.7812 11.2476C11.4309 11.1788 11.1532 11.0564 10.9469 10.882C10.7405 10.7068 10.6373 10.4643 10.6373 10.1548C10.6373 9.89883 10.7245 9.6532 10.8989 9.41871C11.0749 9.18435 11.3686 9.05953 11.7812 9.04357V11.2476ZM13.3325 14.0932C13.1292 14.4588 12.7605 14.654 12.2261 14.6788V12.2124C12.6157 12.3189 12.8948 12.43 13.0604 12.55C13.3468 12.7541 13.4924 13.05 13.4924 13.4412C13.4924 13.6876 13.4388 13.906 13.3325 14.0932Z" fill="#3E4C59" fill-opacity="0.4"/>
</svg>
