<svg width="24" height="24" viewBox="0 0 24 24" fill="none" xmlns="http://www.w3.org/2000/svg">
<g clip-path="url(#clip0_0_2723)">
<path d="M22.5 3.75H1.5C0.6735 3.75 0 4.4235 0 5.25V18.75C0 19.578 0.6735 20.25 1.5 20.25H22.5C23.328 20.25 24 19.578 24 18.75V5.25C24 4.4235 23.328 3.75 22.5 3.75ZM8.2605 7.377C8.3205 7.0155 8.6325 6.75 9 6.75H12.351C12.996 6.75 13.611 7.0275 14.0385 7.5105C14.466 7.995 14.664 8.6385 14.5845 9.279C14.4435 10.4025 13.4835 11.25 12.351 11.25H10.5C10.1325 11.25 9.8205 11.5155 9.7605 11.877L9.1155 15.75H6.8655L8.2605 7.377ZM17.5545 11.7495C17.313 13.1985 16.068 14.25 14.595 14.25H12.6345L11.9895 18.123C11.9295 18.4845 11.6175 18.75 11.25 18.75H9C8.7795 18.75 8.5695 18.654 8.427 18.483C8.2845 18.315 8.223 18.0915 8.2605 17.874L8.367 17.25H9.75C10.1175 17.25 10.4295 16.9845 10.4895 16.623L11.1345 12.75H12.351C14.238 12.75 15.837 11.3385 16.071 9.465C16.104 9.201 16.1085 8.9355 16.0845 8.6745C17.1495 9.2775 17.7675 10.4865 17.5545 11.7495Z" fill="#3E4C59" fill-opacity="0.4"/>
</g>
<defs>
<clipPath id="clip0_0_2723">
<rect width="24" height="24" fill="white"/>
</clipPath>
</defs>
</svg>
