<svg width="300" height="32" viewBox="0 0 300 32" fill="none" xmlns="http://www.w3.org/2000/svg"  style="margin-bottom: 56px">
<line x1="-4.37114e-08" y1="16.5" x2="39" y2="16.5" stroke="#E6E8EA"/>
<line x1="87" y1="16.5" x2="126" y2="16.5" stroke="#E6E8EA"/>
<line x1="174" y1="16.5" x2="213" y2="16.5" stroke="#E6E8EA"/>
<line x1="261" y1="16.5" x2="300" y2="16.5" stroke="#E6E8EA"/>
<circle cx="63" cy="16" r="16" fill="#EE950F"/>
<path d="M64.0462 10.8182H62.2912L59.7607 12.4439V14.1342L62.142 12.6129H62.2017V21H64.0462V10.8182Z" fill="white"/>
<circle cx="150" cy="16" r="16" fill="#E6E8EA"/>
<path d="M146.905 21H153.885V19.4588H149.45V19.3892L151.205 17.6044C153.184 15.7053 153.731 14.7805 153.731 13.6321C153.731 11.9268 152.344 10.679 150.295 10.679C148.277 10.679 146.845 11.9318 146.845 13.8658H148.6C148.6 12.8267 149.256 12.1754 150.271 12.1754C151.24 12.1754 151.961 12.767 151.961 13.7266C151.961 14.5767 151.444 15.1832 150.44 16.2024L146.905 19.6676V21Z" fill="#3E4C59" fill-opacity="0.4"/>
<circle cx="237" cy="16" r="16" fill="#E6E8EA"/>
<path d="M236.559 21.1392C238.737 21.1392 240.322 19.8913 240.317 18.1712C240.322 16.8984 239.527 15.9837 238.1 15.7798V15.7003C239.204 15.4616 239.945 14.6413 239.94 13.4979C239.945 11.9467 238.622 10.679 236.589 10.679C234.61 10.679 233.079 11.8572 233.039 13.5625H234.814C234.844 12.7074 235.639 12.1754 236.579 12.1754C237.528 12.1754 238.16 12.7521 238.155 13.6072C238.16 14.4972 237.424 15.0888 236.37 15.0888H235.47V16.5107H236.37C237.658 16.5107 238.423 17.157 238.418 18.0767C238.423 18.9766 237.643 19.593 236.554 19.593C235.53 19.593 234.739 19.0611 234.695 18.2308H232.825C232.875 19.951 234.411 21.1392 236.559 21.1392Z" fill="#3E4C59" fill-opacity="0.4"/>
</svg>
