<svg width="24" height="24" viewBox="0 0 24 24" fill="none" xmlns="http://www.w3.org/2000/svg">
<path d="M18.3321 17.3316V14.741C18.3321 14.1844 17.8897 13.7331 17.3441 13.7331H17.0859V4.27533C17.0859 4.19073 17.0442 4.11178 16.9751 4.06514L16.348 3.64228C16.1838 3.53157 15.9648 3.65167 15.9648 3.85248V6.88999L15.778 6.37572C15.5266 5.68406 14.88 5.22503 14.1569 5.22503H9.8393C9.11197 5.22503 8.46244 5.68939 8.21421 6.38684L8.03513 6.88999V3.85248C8.03513 3.6517 7.81618 3.53157 7.65196 3.64228L7.02484 4.06511C6.95566 4.11175 6.91403 4.1907 6.91403 4.27531V13.7331H6.65579C6.11018 13.7331 5.66786 14.1844 5.66786 14.741V17.3316H5.24696C5.11057 17.3316 5 17.4444 5 17.5836V18.9765C5 19.1157 5.11057 19.2285 5.24696 19.2285H6.31247V19.8962C6.31247 20.1745 6.53363 20.4001 6.80645 20.4001H8.1154C8.38822 20.4001 8.60938 20.1745 8.60938 19.8962V19.2285H15.3906V19.8962C15.3906 20.1745 15.6118 20.4001 15.8846 20.4001H17.1935C17.4664 20.4001 17.6875 20.1745 17.6875 19.8962V19.2285H18.753C18.8894 19.2285 19 19.1157 19 18.9765V17.5836C19 17.4444 18.8894 17.3316 18.753 17.3316L18.3321 17.3316ZM8.36236 8.29353H15.6376V10.7762H8.36236V8.29353ZM8.19319 16.6265H7.34943C7.09163 16.6265 6.88263 16.4133 6.88263 16.1503V16.1382C6.88263 15.8752 7.09163 15.662 7.34943 15.662H8.19317C8.45097 15.662 8.65997 15.8752 8.65997 16.1382V16.1503C8.66 16.4133 8.451 16.6265 8.19319 16.6265ZM13.679 16.7669H10.321C10.0481 16.7669 9.82698 16.5413 9.82698 16.263V13.07C9.82698 12.7917 10.0481 12.5661 10.321 12.5661H13.679C13.9518 12.5661 14.1729 12.7918 14.1729 13.07V16.263C14.173 16.5413 13.9518 16.7669 13.679 16.7669ZM16.6505 16.6265H15.8068C15.549 16.6265 15.3399 16.4133 15.3399 16.1503V16.1382C15.3399 15.8752 15.549 15.662 15.8068 15.662H16.6505C16.9083 15.662 17.1173 15.8752 17.1173 16.1382V16.1503C17.1173 16.4133 16.9083 16.6265 16.6505 16.6265ZM13.6039 14.4103H10.3881C10.2531 14.4103 10.1436 14.2987 10.1436 14.1609V14.1558C10.1436 14.018 10.2531 13.9064 10.3881 13.9064H13.6039C13.7389 13.9064 13.8484 14.018 13.8484 14.1558V14.1609C13.8484 14.2987 13.7389 14.4103 13.6039 14.4103ZM13.6039 13.4024H10.3881C10.2531 13.4024 10.1436 13.2908 10.1436 13.153V13.1479C10.1436 13.0102 10.2531 12.8985 10.3881 12.8985H13.6039C13.7389 12.8985 13.8484 13.0102 13.8484 13.1479V13.153C13.8484 13.2908 13.7389 13.4024 13.6039 13.4024ZM13.6039 16.4261H10.3881C10.2531 16.4261 10.1436 16.3144 10.1436 16.1766V16.1716C10.1436 16.0338 10.2531 15.9221 10.3881 15.9221H13.6039C13.7389 15.9221 13.8484 16.0338 13.8484 16.1716V16.1766C13.8484 16.3144 13.7389 16.4261 13.6039 16.4261ZM13.6039 15.4182H10.3881C10.2531 15.4182 10.1436 15.3065 10.1436 15.1688V15.1637C10.1436 15.026 10.2531 14.9143 10.3881 14.9143H13.6039C13.7389 14.9143 13.8484 15.026 13.8484 15.1637V15.1688C13.8484 15.3065 13.7389 15.4182 13.6039 15.4182Z" fill="#3E4C59"/>
</svg>
